<svg className="icon" viewBox="0 0 10 15" xmlns="http://www.w3.org/2000/svg">
<path d="M5.48502 14.2645C5.48502 13.8637 5.16006 13.5387 4.75922 13.5387C4.35828 13.5387 4.03341 13.8637 4.03341 14.2645H5.48502ZM4.03341 14.2742C4.03341 14.675 4.35828 15 4.75922 15C5.16006 15 5.48502 14.675 5.48502 14.2742H4.03341ZM4.03341 11.371C4.03341 11.7718 4.35838 12.0968 4.75922 12.0968C5.16006 12.0968 5.48502 11.7718 5.48502 11.371H4.03341ZM4.75922 1.45161C5.16006 1.45161 5.48502 1.12665 5.48502 0.725806C5.48502 0.324958 5.16006 0 4.75922 0V1.45161ZM0.307265 3.44812C0.207346 3.83632 0.441046 4.23201 0.829246 4.33193C1.21745 4.43184 1.61315 4.19814 1.71306 3.80994L0.307265 3.44812ZM8.2066 1.55606C7.94134 1.25552 7.48273 1.22692 7.18215 1.49217C6.88167 1.75742 6.85302 2.21609 7.11828 2.51662L8.2066 1.55606ZM4.03341 14.2645V14.2742H5.48502V14.2645H4.03341ZM7.90438 4.59677C7.90438 5.43063 7.70096 5.86142 7.46618 6.14516C7.19657 6.47081 6.84025 6.67413 6.31002 7.00548C5.81251 7.31642 5.21018 7.719 4.75515 8.42052C4.29567 9.1289 4.03341 10.0636 4.03341 11.371H5.48502C5.48502 10.2589 5.70664 9.6211 5.97296 9.21048C6.24373 8.7931 6.60915 8.53035 7.07938 8.23645C7.51689 7.96297 8.12822 7.62194 8.58451 7.07061C9.07554 6.47729 9.35599 5.69836 9.35599 4.59677L7.90438 4.59677ZM1.71306 3.80994C2.06225 2.45326 3.29464 1.45161 4.75922 1.45161V0C2.61627 0 0.817517 1.46565 0.307265 3.44812L1.71306 3.80994ZM7.11828 2.51662C7.60796 3.0715 7.90438 3.79865 7.90438 4.59677L9.35599 4.59677C9.35599 3.43149 8.92138 2.36595 8.2066 1.55606L7.11828 2.51662Z" fill="#F5EDF7"/>
</svg>
