<svg className="icon" viewBox="0 0 16 15" xmlns="http://www.w3.org/2000/svg">
<path d="M2.5516 11.6594C2.26446 11.3722 2.26446 10.9067 2.5516 10.6195L2.84744 10.3237C3.06995 10.1012 3.11593 9.76284 2.99527 9.47218C2.87466 9.18166 2.60138 8.97056 2.28682 8.97056H1.86859C1.46251 8.97056 1.1333 8.64137 1.1333 8.23527V6.76468C1.1333 6.35857 1.46251 6.02938 1.86859 6.02938H2.28681C2.60137 6.02938 2.87466 5.81827 2.99528 5.52774C3.11595 5.2371 3.06996 4.89871 2.84744 4.67619L2.55162 4.38037C2.26446 4.09321 2.26446 3.62766 2.55162 3.34051L3.59148 2.30064C3.87863 2.01349 4.34419 2.01349 4.63134 2.30064L4.92717 2.59646C5.14968 2.81899 5.48808 2.86497 5.77871 2.7443C6.06924 2.62368 6.28036 2.3504 6.28036 2.03582V1.61762C6.28036 1.21153 6.60955 0.882324 7.01565 0.882324M4.92712 12.4035C5.14965 12.1809 5.48806 12.135 5.7787 12.2556C6.06923 12.3762 6.28036 12.6495 6.28036 12.9642V13.3823C6.28036 13.7884 6.60955 14.1176 7.01565 14.1176H8.48624C8.89234 14.1176 9.22154 13.7884 9.22154 13.3823V12.9641C9.22154 12.6495 9.43264 12.3762 9.72315 12.2556C10.0138 12.135 10.3522 12.1809 10.5747 12.4035L10.8705 12.6992C11.1576 12.9864 11.6232 12.9864 11.9104 12.6992M12.9502 10.6195L12.6545 10.3237C12.4319 10.1012 12.3859 9.76284 12.5066 9.47218C12.6273 9.18166 12.9005 8.97056 13.2151 8.97056H13.6333C14.0394 8.97056 14.3686 8.64137 14.3686 8.23527V6.76468C14.3686 6.35857 14.0394 6.02938 13.6333 6.02938H13.2151C12.9005 6.02938 12.6272 5.81826 12.5066 5.52772C12.3859 5.23708 12.4319 4.89867 12.6545 4.67615L12.9502 4.38037C13.2374 4.09321 13.2374 3.62766 12.9502 3.3405L11.9104 2.30064C11.6232 2.01349 11.1576 2.01349 10.8705 2.30064L10.5747 2.59646C10.3522 2.81897 10.0138 2.86496 9.72315 2.74429C9.43264 2.62368 9.22154 2.35041 9.22154 2.03585M9.22154 7.49997C9.22154 8.31218 8.56315 8.97056 7.75095 8.97056C6.93874 8.97056 6.28036 8.31218 6.28036 7.49997C6.28036 6.68777 6.93874 6.02938 7.75095 6.02938"  strokeLinecap="round"/>
</svg>
