<svg width="67" height="70" viewBox="0 0 67 70" fill="none" xmlns="http://www.w3.org/2000/svg"><path d="M21.6218 16.1073C19.233 16.8889 18.295 20.4234 18.1438 22.5712C17.7747 27.7934 21.5614 31.8054 22.4487 32.745C25.5521 36.0338 29.3118 37.2095 29.3452 37.1315C29.37 37.0763 27.5188 36.3759 25.442 34.5832C24.4424 33.7215 19.7684 29.6868 19.6939 23.9861C19.6853 23.3561 19.6367 19.6093 21.7459 18.0894C23.4968 16.8272 25.8046 17.7712 25.8619 17.3771C25.9201 16.9766 23.6263 15.4534 21.6218 16.1084V16.1073Z" fill="#F5EDF7"/><path d="M45.3663 16.7796C52.6924 24.2957 50.3889 34.7304 50.2173 35.446C50.3306 33.6501 50.607 26.0938 45.1677 19.2618C40.3037 13.1519 33.922 11.4556 31.9996 11.0204C33.5615 11.0713 40.1839 11.4642 45.3652 16.7796H45.3663Z" fill="#F5EDF7"/><path d="M40.2659 47.759C37.2618 48.5719 34.75 48.271 33.1006 48.0567C31.7588 47.8824 28.8962 47.3963 25.7334 45.8721C24.777 45.412 17.4249 41.741 13.9265 33.7583C10.4496 25.8243 12.7704 18.1728 12.7153 18.1696C12.656 18.1663 9.52451 27.3853 13.825 36.5112C18.3025 46.0139 27.9128 49.202 29.3517 49.661C31.3994 50.3127 36.4361 51.8445 41.3745 49.8439C42.6936 49.3092 44.8859 48.3836 46.1176 46.0713C47.0869 44.2504 46.9919 42.4512 46.8818 41.5765C46.5947 42.5649 45.8067 44.7278 43.6953 46.2694C42.4993 47.143 41.3659 47.4602 40.2638 47.759H40.2659Z" fill="#F5EDF7"/><path d="M0.120419 24.9214C-1.44477 39.9332 12.752 50.1276 13.4861 50.6375C11.2397 48.4875 5.46041 42.3895 3.38789 32.4668C1.47728 23.3225 3.76785 15.9687 4.8732 13.0058C3.07269 15.4534 0.682808 19.5346 0.120419 24.9203V24.9214Z" fill="#F5EDF7"/><path d="M47.2467 57.7877C46.3874 58.6375 45.0165 59.7937 43.0887 60.6673C39.7802 62.1666 36.7988 61.9436 34.6733 61.7596C28.0186 61.1815 22.8416 57.9934 20.2185 56.1C22.8664 57.4824 27.8621 59.6443 34.4758 59.8727C40.1062 60.0676 44.5848 58.7815 47.2477 57.7877H47.2467Z" fill="#F5EDF7"/><path d="M63.1101 26.7596C64.5199 29.6089 68.2137 37.0698 65.8692 45.7779C64.5436 50.6992 61.8342 53.9966 60.1956 55.6951C61.6723 52.7105 63.9337 47.1094 63.883 39.8368C63.7923 26.922 56.4781 18.3471 54.5631 16.2307C57.1408 18.2691 60.5767 21.637 63.1123 26.7596H63.1101Z" fill="#F5EDF7"/><path d="M19.5255 1.8858C31.8635 -1.93453 45.0694 8.33132 44.9701 8.53808C44.8935 8.69722 37.0751 2.82762 25.3664 2.7789C20.32 2.75834 16.1221 4.04874 13.1881 5.2612C14.3896 4.31072 16.5474 2.80705 19.5245 1.8858H19.5255Z" fill="#F5EDF7"/><path d="M33.8897 15.1081C33.7763 17.9899 34.3344 20.9127 35.4484 23.7274C36.1446 25.243 37.5382 27.0833 40.0015 27.0086L40.0198 27.0194C38.7914 27.1915 37.6774 27.7328 36.8419 28.4906C33.4989 31.5218 34.4736 35.5272 34.0991 39.105L34.0883 39.1332C34.0548 38.7749 34.0548 38.4501 34.0548 38.1253C33.7763 36.3932 33.7763 34.8777 33.4978 33.1456C33.0801 30.6557 31.8258 27.6246 28.2874 26.9328L28.3014 26.9436C30.851 26.4338 32.1043 24.4852 32.9408 22.6448C33.9156 20.155 33.7763 17.6651 33.8325 15.08" fill="#F5EDF7"/><path d="M27.6116 17.4832C27.5728 18.2854 27.7649 19.0995 28.1514 19.8832C28.3921 20.3054 28.8746 20.8175 29.7263 20.7969L29.7327 20.8002C29.3074 20.8478 28.9221 20.9983 28.6328 21.2094C27.4756 22.0538 27.8135 23.1688 27.684 24.1658L27.6807 24.1734C27.6689 24.0738 27.6689 23.9829 27.6689 23.893C27.5728 23.4102 27.5728 22.9891 27.4756 22.5063C27.331 21.8123 26.8971 20.969 25.673 20.7763L25.6784 20.7796C26.5603 20.6378 26.9942 20.0954 27.2835 19.5823C27.6214 18.8884 27.5728 18.1955 27.5922 17.4756" fill="#F5EDF7"/><path d="M9.03014 0.0162385C8.96645 1.64548 9.28165 3.29854 9.91204 4.89097C10.306 5.74835 11.094 6.78869 12.4865 6.74647L12.4973 6.75296C11.8032 6.85039 11.1728 7.15675 10.7 7.58436C8.80886 9.29804 9.36045 11.5638 9.14888 13.5871L9.1424 13.6034C9.12405 13.4009 9.12405 13.2169 9.12405 13.0328C8.96645 12.0531 8.96645 11.1958 8.80886 10.2171C8.57246 8.80873 7.86326 7.09505 5.86198 6.70425L5.86954 6.70966C7.31167 6.4217 8.01978 5.31966 8.49258 4.27825C9.04417 2.86985 8.96537 1.46253 8.99668 0" fill="#F5EDF7"/><path d="M48.5884 5.74186C48.5442 6.87962 48.7644 8.03362 49.2037 9.1454C49.479 9.74405 50.0284 10.4704 51.0021 10.4412L51.0096 10.4455C50.5249 10.5137 50.0845 10.727 49.7542 11.0269C48.4341 12.2242 48.8194 13.8058 48.6715 15.2185L48.6672 15.2293C48.6543 15.0875 48.6543 14.9598 48.6543 14.831C48.5442 14.1468 48.5442 13.5481 48.4341 12.864C48.2689 11.881 47.7734 10.6837 46.3766 10.4109L46.382 10.4152C47.3892 10.2139 47.8835 9.44419 48.2139 8.71779C48.5992 7.73484 48.5442 6.7508 48.5658 5.72995" fill="#F5EDF7"/><path d="M16.0681 47.576C16.0076 49.11 16.3045 50.6667 16.8982 52.166C17.2695 52.9725 18.0111 53.9533 19.3226 53.9133L19.3323 53.9198C18.6782 54.0118 18.0845 54.2997 17.6398 54.7035C15.8598 56.3176 16.379 58.4502 16.1793 60.3555L16.1739 60.3707C16.1566 60.1802 16.1566 60.007 16.1566 59.8338C16.0087 58.9114 16.0087 58.1049 15.8598 57.1826C15.6374 55.8565 14.9692 54.2424 13.0856 53.8743L13.0932 53.8797C14.4511 53.608 15.1182 52.5709 15.5629 51.5901C16.0821 50.264 16.0076 48.9389 16.0379 47.5619" fill="#F5EDF7"/><path d="M52.5359 42.331C52.4064 45.6491 53.0476 49.0158 54.3311 52.257C55.1331 54.002 56.7382 56.1217 59.575 56.0351L59.5966 56.0481C58.1825 56.2462 56.899 56.8697 55.9362 57.7423C52.0858 61.2335 53.2084 65.8462 52.7777 69.9675L52.7659 70C52.7281 69.5875 52.7281 69.213 52.7281 68.8395C52.4075 66.8444 52.4075 65.0993 52.0858 63.1041C51.6044 60.2365 50.1601 56.7452 46.0852 55.9496L46.1014 55.9615C49.0375 55.3736 50.4818 53.1295 51.4435 51.011C52.5662 48.1433 52.4064 45.2756 52.4701 42.2986" fill="#F5EDF7"/>
<path d="M4.32917 6.84606C4.30219 7.40466 4.43604 7.97192 4.70482 8.5186C4.87321 8.81306 5.20892 9.16922 5.80261 9.15514L5.80693 9.15731C5.51116 9.19087 5.24238 9.29588 5.04053 9.4431C4.23418 10.0309 4.4695 10.8082 4.37991 11.5021L4.37775 11.5075C4.37019 11.4382 4.37019 11.3755 4.37019 11.3116C4.30327 10.976 4.30327 10.6815 4.23634 10.346C4.13595 9.86313 3.83371 9.27531 2.98095 9.14107L2.98419 9.14324C3.59839 9.04472 3.90064 8.66583 4.10249 8.30967C4.33781 7.82685 4.30435 7.34403 4.3173 6.84173" fill="#F5EDF7"/><path d="M19.9962 47.7947C19.9692 48.3533 20.103 48.9205 20.3718 49.4672C20.5402 49.7617 20.8759 50.1178 21.4696 50.1038L21.4739 50.1059C21.1782 50.1395 20.9094 50.2445 20.7075 50.3917C19.9012 50.9796 20.1365 51.7568 20.0469 52.4507L20.0448 52.4562C20.0372 52.3869 20.0372 52.3241 20.0372 52.2602C19.9703 51.9246 19.9703 51.6302 19.9034 51.2946C19.803 50.8118 19.5007 50.2239 18.648 50.0897L18.6512 50.0919C19.2654 49.9933 19.5676 49.6145 19.7695 49.2583C20.0048 48.7755 19.9714 48.2927 19.9843 47.7904" fill="#F5EDF7"/><path d="M37.2435 32.1312C37.2316 32.4343 37.2888 32.7429 37.4011 33.0384C37.4713 33.1976 37.6127 33.3913 37.862 33.3838H37.8642C37.74 33.4032 37.6267 33.4595 37.5425 33.5396C37.2046 33.859 37.3029 34.2812 37.2651 34.6579V34.6612C37.2608 34.6233 37.2608 34.5897 37.2608 34.5551C37.2327 34.3732 37.2327 34.213 37.2046 34.0311C37.1625 33.7691 37.0352 33.4498 36.6779 33.3773H36.6789C36.9369 33.3242 37.0643 33.1196 37.1485 32.9258C37.2467 32.6639 37.2327 32.4019 37.2392 32.1291" fill="#F5EDF7"/><path d="M45.389 11.6937C45.3771 11.9968 45.4343 12.3054 45.5466 12.6009C45.6167 12.76 45.7581 12.9538 46.0075 12.9462H46.0096C45.8855 12.9657 45.7722 13.022 45.688 13.1021C45.3501 13.4215 45.4483 13.8437 45.4105 14.2204V14.2237C45.4062 14.1858 45.4062 14.1522 45.4062 14.1176C45.3782 13.9357 45.3782 13.7755 45.3501 13.5936C45.308 13.3316 45.1806 13.0123 44.8233 12.9397H44.8244C45.0824 12.8867 45.2098 12.6821 45.294 12.4883C45.3922 12.2263 45.3782 11.9644 45.3846 11.6916" fill="#F5EDF7"/><path d="M53.1696 12.3162C53.1512 12.8044 53.2419 13.3002 53.4232 13.7776C53.5366 14.0342 53.7633 14.346 54.1648 14.3341L54.1681 14.3362C53.9684 14.3655 53.787 14.4575 53.6499 14.5852C53.1048 15.0994 53.2646 15.7782 53.203 16.3844L53.2009 16.3888C53.1955 16.3281 53.1955 16.2729 53.1955 16.2177C53.1501 15.9243 53.1501 15.6667 53.1048 15.3733C53.0368 14.9511 52.8328 14.438 52.2564 14.32L52.2585 14.3222C52.6741 14.2356 52.8781 13.9054 53.0141 13.5936C53.1728 13.1714 53.1501 12.7492 53.1588 12.3108" fill="#F5EDF7"/><path d="M43.2851 3.1578C43.2733 3.46092 43.3305 3.76945 43.4427 4.06498C43.5129 4.22412 43.6543 4.4179 43.9036 4.41032H43.9058C43.7817 4.4298 43.6683 4.4861 43.5841 4.56621C43.2463 4.88556 43.3445 5.30775 43.3067 5.68448V5.68773C43.3024 5.64984 43.3024 5.61628 43.3024 5.58164C43.2743 5.39977 43.2743 5.23955 43.2463 5.05768C43.2042 4.79571 43.0768 4.47635 42.7195 4.40382H42.7206C42.9786 4.35078 43.1059 4.14618 43.1901 3.9524C43.2884 3.69042 43.2743 3.42844 43.2808 3.15564" fill="#F5EDF7"/><path d="M5.56406 15.3712C5.55218 15.6743 5.60939 15.9828 5.72165 16.2783C5.79182 16.4375 5.93322 16.6313 6.18257 16.6237H6.18473C6.0606 16.6432 5.94726 16.6995 5.86306 16.7796C5.5252 17.0989 5.62342 17.5211 5.58564 17.8978V17.9011C5.58133 17.8632 5.58133 17.8296 5.58133 17.795C5.55326 17.6131 5.55326 17.4529 5.5252 17.271C5.4831 17.0091 5.35572 16.6897 4.99843 16.6172H4.99951C5.25749 16.5641 5.38487 16.3595 5.46906 16.1658C5.56729 15.9038 5.55326 15.6418 5.55974 15.369" fill="#F5EDF7"/><path d="M58.7082 48.9519C58.6801 49.4402 58.8172 49.936 59.0914 50.4134C59.263 50.6699 59.6052 50.9817 60.2118 50.9698L60.2162 50.972C59.9139 51.0012 59.6397 51.0932 59.4347 51.221C58.6121 51.7352 58.8518 52.4139 58.76 53.0202L58.7578 53.0245C58.7492 52.9639 58.7492 52.9087 58.7492 52.8535C58.6812 52.5601 58.6812 52.3024 58.6121 52.0091C58.5096 51.5869 58.2009 51.0737 57.3308 50.9557L57.3341 50.9579C57.9612 50.8713 58.2699 50.5411 58.475 50.2293C58.7147 49.8072 58.6801 49.385 58.6942 48.9465" fill="#F5EDF7"/><path d="M11.7924 53.3395C11.7773 53.6134 11.854 53.8905 12.0072 54.1579C12.1033 54.3019 12.2955 54.4762 12.6344 54.4697H12.6366C12.4671 54.487 12.3138 54.539 12.1983 54.6104C11.7374 54.8984 11.8723 55.2784 11.8205 55.6183V55.6205C11.814 55.5869 11.814 55.5555 11.814 55.5252C11.7752 55.3606 11.7752 55.2167 11.7374 55.0521C11.6802 54.8161 11.5075 54.5282 11.0196 54.4621H11.0217C11.3725 54.4145 11.5452 54.2294 11.6607 54.0551C11.7946 53.8191 11.7762 53.582 11.7838 53.3374" fill="#F5EDF7"/><path d="M29.152 9.69642C29.1369 9.97031 29.2135 10.2474 29.3668 10.5148C29.4629 10.6588 29.655 10.8331 29.994 10.8266H29.9961C29.8267 10.8439 29.6734 10.8959 29.5579 10.9673C29.097 11.2553 29.2319 11.6353 29.1801 11.9752V11.9774C29.1736 11.9438 29.1736 11.9124 29.1736 11.8821C29.1347 11.7175 29.1347 11.5736 29.097 11.409C29.0397 11.173 28.867 10.8851 28.3791 10.819H28.3813C28.7321 10.7714 28.9048 10.5863 29.0203 10.412C29.1542 10.176 29.1358 9.93891 29.1434 9.69426" fill="#F5EDF7"/><path d="M26.951 28.8435C27.2515 28.8435 27.4951 28.5992 27.4951 28.2979C27.4951 27.9966 27.2515 27.7523 26.951 27.7523C26.6506 27.7523 26.407 27.9966 26.407 28.2979C26.407 28.5992 26.6506 28.8435 26.951 28.8435Z" fill="#F5EDF7"/><path d="M28.2712 29.82C28.3803 29.82 28.4687 29.7313 28.4687 29.6219C28.4687 29.5125 28.3803 29.4238 28.2712 29.4238C28.1621 29.4238 28.0736 29.5125 28.0736 29.6219C28.0736 29.7313 28.1621 29.82 28.2712 29.82Z" fill="#F5EDF7"/><path d="M38.6997 24.4256C38.8821 24.4256 39.03 24.2773 39.03 24.0944C39.03 23.9114 38.8821 23.7631 38.6997 23.7631C38.5172 23.7631 38.3694 23.9114 38.3694 24.0944C38.3694 24.2773 38.5172 24.4256 38.6997 24.4256Z" fill="#F5EDF7"/><path d="M37.916 22.464C38.0251 22.464 38.1135 22.3753 38.1135 22.2659C38.1135 22.1565 38.0251 22.0678 37.916 22.0678C37.8069 22.0678 37.7184 22.1565 37.7184 22.2659C37.7184 22.3753 37.8069 22.464 37.916 22.464Z" fill="#F5EDF7"/><path d="M37.8642 31.6668C37.9393 31.6668 38.0002 31.6057 38.0002 31.5304C38.0002 31.4551 37.9393 31.394 37.8642 31.394C37.7891 31.394 37.7282 31.4551 37.7282 31.5304C37.7282 31.6057 37.7891 31.6668 37.8642 31.6668Z" fill="#F5EDF7"/><path d="M27.3223 12.6842C27.5823 12.6842 27.793 12.4729 27.793 12.2123C27.793 11.9516 27.5823 11.7403 27.3223 11.7403C27.0624 11.7403 26.8517 11.9516 26.8517 12.2123C26.8517 12.4729 27.0624 12.6842 27.3223 12.6842Z" fill="#F5EDF7"/><path d="M30.1041 9.02955C30.2132 9.02955 30.3016 8.94086 30.3016 8.83144C30.3016 8.72203 30.2132 8.63334 30.1041 8.63334C29.995 8.63334 29.9065 8.72203 29.9065 8.83144C29.9065 8.94086 29.995 9.02955 30.1041 9.02955Z" fill="#F5EDF7"/><path d="M26.0097 11.8399C26.0849 11.8399 26.1458 11.7788 26.1458 11.7035C26.1458 11.6281 26.0849 11.5671 26.0097 11.5671C25.9346 11.5671 25.8737 11.6281 25.8737 11.7035C25.8737 11.7788 25.9346 11.8399 26.0097 11.8399Z" fill="#F5EDF7"/><path d="M11.9015 2.82977C12.134 2.82977 12.3224 2.64075 12.3224 2.40758C12.3224 2.17441 12.134 1.98538 11.9015 1.98538C11.6689 1.98538 11.4805 2.17441 11.4805 2.40758C11.4805 2.64075 11.6689 2.82977 11.9015 2.82977Z" fill="#F5EDF7"/><path d="M11.1469 3.71097C11.222 3.71097 11.2829 3.6499 11.2829 3.57457C11.2829 3.49924 11.222 3.43817 11.1469 3.43817C11.0718 3.43817 11.0109 3.49924 11.0109 3.57457C11.0109 3.6499 11.0718 3.71097 11.1469 3.71097Z" fill="#F5EDF7"/><path d="M6.95113 13.0566C7.08765 13.0566 7.19833 12.9457 7.19833 12.8087C7.19833 12.6718 7.08765 12.5608 6.95113 12.5608C6.81461 12.5608 6.70394 12.6718 6.70394 12.8087C6.70394 12.9457 6.81461 13.0566 6.95113 13.0566Z" fill="#F5EDF7"/><path d="M8.1029 14.7812C8.17801 14.7812 8.23891 14.7201 8.23891 14.6448C8.23891 14.5694 8.17801 14.5083 8.1029 14.5083C8.02778 14.5083 7.96689 14.5694 7.96689 14.6448C7.96689 14.7201 8.02778 14.7812 8.1029 14.7812Z" fill="#F5EDF7"/><path d="M12.5696 10.4499C12.8701 10.4499 13.1137 10.2056 13.1137 9.90425C13.1137 9.60292 12.8701 9.35865 12.5696 9.35865C12.2692 9.35865 12.0256 9.60292 12.0256 9.90425C12.0256 10.2056 12.2692 10.4499 12.5696 10.4499Z" fill="#F5EDF7"/><path d="M50.3652 8.11696C50.4403 8.11696 50.5012 8.05589 50.5012 7.98056C50.5012 7.90523 50.4403 7.84416 50.3652 7.84416C50.2901 7.84416 50.2292 7.90523 50.2292 7.98056C50.2292 8.05589 50.2901 8.11696 50.3652 8.11696Z" fill="#F5EDF7"/><path d="M50.1676 12.8326C50.2428 12.8326 50.3037 12.7715 50.3037 12.6962C50.3037 12.6208 50.2428 12.5598 50.1676 12.5598C50.0925 12.5598 50.0316 12.6208 50.0316 12.6962C50.0316 12.7715 50.0925 12.8326 50.1676 12.8326Z" fill="#F5EDF7"/><path d="M29.3636 22.7249C29.4387 22.7249 29.4996 22.6639 29.4996 22.5885C29.4996 22.5132 29.4387 22.4521 29.3636 22.4521C29.2885 22.4521 29.2276 22.5132 29.2276 22.5885C29.2276 22.6639 29.2885 22.7249 29.3636 22.7249Z" fill="#F5EDF7"/><path d="M45.3328 6.68583C45.5153 6.68583 45.6631 6.53752 45.6631 6.35456C45.6631 6.17161 45.5153 6.0233 45.3328 6.0233C45.1504 6.0233 45.0025 6.17161 45.0025 6.35456C45.0025 6.53752 45.1504 6.68583 45.3328 6.68583Z" fill="#F5EDF7"/><path d="M51.8505 8.83578C51.9596 8.83578 52.048 8.74708 52.048 8.63767C52.048 8.52826 51.9596 8.43956 51.8505 8.43956C51.7414 8.43956 51.653 8.52826 51.653 8.63767C51.653 8.74708 51.7414 8.83578 51.8505 8.83578Z" fill="#F5EDF7"/><path d="M50.8358 16.8055C51.0957 16.8055 51.3065 16.5942 51.3065 16.3335C51.3065 16.0729 51.0957 15.8615 50.8358 15.8615C50.5759 15.8615 50.3652 16.0729 50.3652 16.3335C50.3652 16.5942 50.5759 16.8055 50.8358 16.8055Z" fill="#F5EDF7"/><path d="M47.3579 5.99408C47.433 5.99408 47.4939 5.93301 47.4939 5.85767C47.4939 5.78234 47.433 5.72127 47.3579 5.72127C47.2827 5.72127 47.2218 5.78234 47.2218 5.85767C47.2218 5.93301 47.2827 5.99408 47.3579 5.99408Z" fill="#F5EDF7"/><path d="M38.9943 33.0774C39.1768 33.0774 39.3247 32.9291 39.3247 32.7461C39.3247 32.5632 39.1768 32.4148 38.9943 32.4148C38.8119 32.4148 38.664 32.5632 38.664 32.7461C38.664 32.9291 38.8119 33.0774 38.9943 33.0774Z" fill="#F5EDF7"/><path d="M50.675 36.2785C50.7501 36.2785 50.811 36.2174 50.811 36.1421C50.811 36.0667 50.7501 36.0057 50.675 36.0057C50.5999 36.0057 50.539 36.0667 50.539 36.1421C50.539 36.2174 50.5999 36.2785 50.675 36.2785Z" fill="#F5EDF7"/><path d="M47.6677 41.1067C47.9276 41.1067 48.1383 40.8953 48.1383 40.6347C48.1383 40.374 47.9276 40.1627 47.6677 40.1627C47.4077 40.1627 47.197 40.374 47.197 40.6347C47.197 40.8953 47.4077 41.1067 47.6677 41.1067Z" fill="#F5EDF7"/><path d="M49.4865 40.1508C49.5616 40.1508 49.6225 40.0897 49.6225 40.0144C49.6225 39.939 49.5616 39.878 49.4865 39.878C49.4114 39.878 49.3505 39.939 49.3505 40.0144C49.3505 40.0897 49.4114 40.1508 49.4865 40.1508Z" fill="#F5EDF7"/><path d="M57.5564 48.5654C57.6315 48.5654 57.6924 48.5044 57.6924 48.429C57.6924 48.3537 57.6315 48.2926 57.5564 48.2926C57.4813 48.2926 57.4204 48.3537 57.4204 48.429C57.4204 48.5044 57.4813 48.5654 57.5564 48.5654Z" fill="#F5EDF7"/><path d="M47.9397 61.1967C48.1221 61.1967 48.27 61.0484 48.27 60.8654C48.27 60.6825 48.1221 60.5341 47.9397 60.5341C47.7573 60.5341 47.6094 60.6825 47.6094 60.8654C47.6094 61.0484 47.7573 61.1967 47.9397 61.1967Z" fill="#F5EDF7"/><path d="M59.3008 58.3582C59.5607 58.3582 59.7714 58.1469 59.7714 57.8862C59.7714 57.6255 59.5607 57.4142 59.3008 57.4142C59.0409 57.4142 58.8302 57.6255 58.8302 57.8862C58.8302 58.1469 59.0409 58.3582 59.3008 58.3582Z" fill="#F5EDF7"/><path d="M57.8284 58.8172C57.9036 58.8172 57.9645 58.7561 57.9645 58.6808C57.9645 58.6055 57.9036 58.5444 57.8284 58.5444C57.7533 58.5444 57.6924 58.6055 57.6924 58.6808C57.6924 58.7561 57.7533 58.8172 57.8284 58.8172Z" fill="#F5EDF7"/><path d="M47.0988 59.5739C47.1739 59.5739 47.2348 59.5128 47.2348 59.4375C47.2348 59.3622 47.1739 59.3011 47.0988 59.3011C47.0237 59.3011 46.9628 59.3622 46.9628 59.4375C46.9628 59.5128 47.0237 59.5739 47.0988 59.5739Z" fill="#F5EDF7"/><path d="M56.9498 53.8494C57.1322 53.8494 57.2801 53.7011 57.2801 53.5181C57.2801 53.3352 57.1322 53.1869 56.9498 53.1869C56.7673 53.1869 56.6195 53.3352 56.6195 53.5181C56.6195 53.7011 56.7673 53.8494 56.9498 53.8494Z" fill="#F5EDF7"/><path d="M58.5333 54.461C58.6084 54.461 58.6693 54.4 58.6693 54.3246C58.6693 54.2493 58.6084 54.1882 58.5333 54.1882C58.4582 54.1882 58.3973 54.2493 58.3973 54.3246C58.3973 54.4 58.4582 54.461 58.5333 54.461Z" fill="#F5EDF7"/><path d="M55.3155 60.1942C55.452 60.1942 55.5627 60.0832 55.5627 59.9463C55.5627 59.8094 55.452 59.6984 55.3155 59.6984C55.179 59.6984 55.0683 59.8094 55.0683 59.9463C55.0683 60.0832 55.179 60.1942 55.3155 60.1942Z" fill="#F5EDF7"/><path d="M54.4314 62.7707C54.5238 62.7707 54.5988 62.6956 54.5988 62.6029C54.5988 62.5102 54.5238 62.4351 54.4314 62.4351C54.339 62.4351 54.2641 62.5102 54.2641 62.6029C54.2641 62.6956 54.339 62.7707 54.4314 62.7707Z" fill="#F5EDF7"/><path d="M55.8358 61.5604C55.8906 61.5604 55.9351 61.5158 55.9351 61.4608C55.9351 61.4058 55.8906 61.3612 55.8358 61.3612C55.7809 61.3612 55.7365 61.4058 55.7365 61.4608C55.7365 61.5158 55.7809 61.5604 55.8358 61.5604Z" fill="#F5EDF7"/><path d="M13.2875 48.8263C13.5474 48.8263 13.7581 48.615 13.7581 48.3544C13.7581 48.0937 13.5474 47.8824 13.2875 47.8824C13.0275 47.8824 12.8168 48.0937 12.8168 48.3544C12.8168 48.615 13.0275 48.8263 13.2875 48.8263Z" fill="#F5EDF7"/><path d="M12.0504 51.4818C12.1869 51.4818 12.2976 51.3709 12.2976 51.2339C12.2976 51.097 12.1869 50.986 12.0504 50.986C11.9139 50.986 11.8032 51.097 11.8032 51.2339C11.8032 51.3709 11.9139 51.4818 12.0504 51.4818Z" fill="#F5EDF7"/><path d="M19.2773 56.9433C19.4138 56.9433 19.5245 56.8323 19.5245 56.6954C19.5245 56.5585 19.4138 56.4475 19.2773 56.4475C19.1408 56.4475 19.0301 56.5585 19.0301 56.6954C19.0301 56.8323 19.1408 56.9433 19.2773 56.9433Z" fill="#F5EDF7"/><path d="M21.5052 52.6239C21.6418 52.6239 21.7524 52.5129 21.7524 52.376C21.7524 52.2391 21.6418 52.1281 21.5052 52.1281C21.3687 52.1281 21.258 52.2391 21.258 52.376C21.258 52.5129 21.3687 52.6239 21.5052 52.6239Z" fill="#F5EDF7"/><path d="M21.9014 54.2131C21.9562 54.2131 22.0007 54.1685 22.0007 54.1135C22.0007 54.0585 21.9562 54.0139 21.9014 54.0139C21.8465 54.0139 21.8021 54.0585 21.8021 54.1135C21.8021 54.1685 21.8465 54.2131 21.9014 54.2131Z" fill="#F5EDF7"/><path d="M13.1655 53.0386C13.2203 53.0386 13.2648 52.994 13.2648 52.939C13.2648 52.884 13.2203 52.8394 13.1655 52.8394C13.1106 52.8394 13.0662 52.884 13.0662 52.939C13.0662 52.994 13.1106 53.0386 13.1655 53.0386Z" fill="#F5EDF7"/><path d="M17.8416 57.3904C17.8965 57.3904 17.9409 57.3458 17.9409 57.2908C17.9409 57.2358 17.8965 57.1912 17.8416 57.1912C17.7868 57.1912 17.7423 57.2358 17.7423 57.2908C17.7423 57.3458 17.7868 57.3904 17.8416 57.3904Z" fill="#F5EDF7"/><path d="M5.26828 5.55997C5.32313 5.55997 5.36759 5.51538 5.36759 5.46038C5.36759 5.40537 5.32313 5.36078 5.26828 5.36078C5.21344 5.36078 5.16898 5.40537 5.16898 5.46038C5.16898 5.51538 5.21344 5.55997 5.26828 5.55997Z" fill="#F5EDF7"/><path d="M28.8314 15.3906C28.8863 15.3906 28.9307 15.346 28.9307 15.291C28.9307 15.236 28.8863 15.1914 28.8314 15.1914C28.7766 15.1914 28.7321 15.236 28.7321 15.291C28.7321 15.346 28.7766 15.3906 28.8314 15.3906Z" fill="#F5EDF7"/><path d="M29.3269 13.8004C29.436 13.8004 29.5244 13.7117 29.5244 13.6023C29.5244 13.4928 29.436 13.4041 29.3269 13.4041C29.2178 13.4041 29.1293 13.4928 29.1293 13.6023C29.1293 13.7117 29.2178 13.8004 29.3269 13.8004Z" fill="#F5EDF7"/><path d="M14.1046 16.9538C14.3645 16.9538 14.5752 16.7425 14.5752 16.4818C14.5752 16.2212 14.3645 16.0098 14.1046 16.0098C13.8447 16.0098 13.634 16.2212 13.634 16.4818C13.634 16.7425 13.8447 16.9538 14.1046 16.9538Z" fill="#F5EDF7"/><path d="M49.2274 38.095C49.4099 38.095 49.5578 37.9467 49.5578 37.7637C49.5578 37.5808 49.4099 37.4325 49.2274 37.4325C49.045 37.4325 48.8971 37.5808 48.8971 37.7637C48.8971 37.9467 49.045 38.095 49.2274 38.095Z" fill="#F5EDF7"/><path d="M12.9906 14.3308C13.173 14.3308 13.3209 14.1825 13.3209 13.9995C13.3209 13.8166 13.173 13.6683 12.9906 13.6683C12.8082 13.6683 12.6603 13.8166 12.6603 13.9995C12.6603 14.1825 12.8082 14.3308 12.9906 14.3308Z" fill="#F5EDF7"/><path d="M14.6735 14.6945C14.7283 14.6945 14.7728 14.65 14.7728 14.595C14.7728 14.5399 14.7283 14.4954 14.6735 14.4954C14.6186 14.4954 14.5741 14.5399 14.5741 14.595C14.5741 14.65 14.6186 14.6945 14.6735 14.6945Z" fill="#F5EDF7"/><path d="M10.7637 45.7227C10.9002 45.7227 11.0109 45.6117 11.0109 45.4748C11.0109 45.3378 10.9002 45.2269 10.7637 45.2269C10.6272 45.2269 10.5165 45.3378 10.5165 45.4748C10.5165 45.6117 10.6272 45.7227 10.7637 45.7227Z" fill="#F5EDF7"/></svg>
