<?xml version="1.0" encoding="utf-8"?>
<!-- Generator: Adobe Illustrator 28.0.0, SVG Export Plug-In . SVG Version: 6.00 Build 0)  -->
<svg version="1.1" id="a" xmlns="http://www.w3.org/2000/svg" xmlns:xlink="http://www.w3.org/1999/xlink" x="0px" y="0px"
	 viewBox="0 0 593.2 594.8" style="enable-background:new 0 0 593.2 594.8;" xml:space="preserve">
<style type="text/css">
	.st0{fill:url(#SVGID_1_);}
	.st1{fill:#F5EDF7;}
</style>
<linearGradient id="SVGID_1_" gradientUnits="userSpaceOnUse" x1="558.4984" y1="-3.6902" x2="17.1983" y2="537.5998" gradientTransform="matrix(1 0 0 -1 0 556.9045)">
	<stop  offset="0" style="stop-color:#8713BE"/>
	<stop  offset="1" style="stop-color:#544CD0"/>
</linearGradient>
<path class="st0" d="M117.1,0.9h357.7c65.3,0,118.3,53,118.3,118.3v357.7c0,65.3-53,118.3-118.3,118.3H117.1
	c-65.3,0-118.3-53-118.3-118.3V119.2C-1.2,53.9,51.8,0.9,117.1,0.9z"/>
<g id="c">
	<g id="f">
		<path class="st1" d="M219,179.5c-16.7,5.5-23.3,30.1-24.3,45.1c-2.6,36.4,23.9,64.4,30.1,71c21.7,23,48,31.1,48.3,30.6
			c0.2-0.4-12.8-5.3-27.3-17.8c-7-6-39.7-34.2-40.2-73.9c-0.1-4.4-0.4-30.5,14.4-41.1c12.2-8.8,28.4-2.2,28.8-5
			C249.1,185.6,233.1,174.9,219,179.5L219,179.5z"/>
		<path class="st1" d="M385.2,184.2c51.3,52.5,35.1,125.3,33.9,130.3c0.8-12.5,2.7-65.3-35.3-112.9c-34-42.6-78.7-54.5-92.2-57.5
			C302.6,144.4,348.9,147.1,385.2,184.2L385.2,184.2z"/>
		<path class="st1" d="M349.5,400.4c-21,5.7-38.6,3.6-50.1,2.1c-9.4-1.2-29.4-4.6-51.5-15.2c-6.7-3.2-58.1-28.8-82.6-84.5
			c-24.3-55.4-8.1-108.8-8.5-108.8c-0.4,0-22.3,64.3,7.8,128c31.3,66.3,98.6,88.5,108.7,91.8c14.3,4.5,49.6,15.2,84.1,1.3
			c9.2-3.7,24.6-10.2,33.2-26.3c6.8-12.7,6.1-25.3,5.3-31.4c-2,6.9-7.5,22-22.3,32.8C365.2,396.1,357.2,398.3,349.5,400.4
			L349.5,400.4z"/>
		<path class="st1" d="M68.6,241c-11,104.8,88.4,175.9,93.5,179.5c-15.7-15-56.2-57.6-70.7-126.8c-13.4-63.8,2.7-115.1,10.4-135.8
			C89.2,175,72.5,203.4,68.6,241L68.6,241z"/>
		<path class="st1" d="M398.4,470.3c-6,5.9-15.6,14-29.1,20.1c-23.2,10.5-44,8.9-58.9,7.6c-46.6-4-82.8-26.3-101.2-39.5
			c18.5,9.7,53.5,24.7,99.8,26.3C348.4,486.3,379.7,477.3,398.4,470.3L398.4,470.3z"/>
		<path class="st1" d="M509.4,253.8c9.9,19.9,35.7,71.9,19.3,132.7c-9.3,34.3-28.2,57.3-39.7,69.2c10.3-20.8,26.2-59.9,25.8-110.7
			c-0.6-90.1-51.8-149.9-65.2-164.7C467.6,194.6,491.6,218.1,509.4,253.8L509.4,253.8z"/>
		<path class="st1" d="M204.4,80.3c86.3-26.7,178.7,45,178.1,46.4c-0.5,1.1-55.2-39.8-137.2-40.2c-35.3-0.1-64.7,8.9-85.2,17.3
			C168.4,97.2,183.5,86.7,204.4,80.3z"/>
		<path class="st1" d="M304.9,172.5c-0.8,20.1,3.1,40.5,10.9,60.1c4.9,10.6,14.6,23.4,31.9,22.9l0.1,0.1c-8.6,1.2-16.4,5-22.2,10.3
			C302.1,287.1,309,315,306.3,340l-0.1,0.2c-0.2-2.5-0.2-4.8-0.2-7c-1.9-12.1-1.9-22.7-3.9-34.8c-2.9-17.4-11.7-38.5-36.5-43.4
			l0.1,0.1c17.8-3.6,26.6-17.2,32.5-30c6.8-17.4,5.8-34.8,6.2-52.8"/>
		<path class="st1" d="M261,189.1c-0.3,5.6,1.1,11.3,3.8,16.8c1.7,3,5.1,6.5,11,6.4l0,0c-3,0.3-5.7,1.4-7.7,2.9
			c-8.1,5.9-5.7,13.7-6.6,20.6l0,0c-0.1-0.7-0.1-1.3-0.1-2c-0.7-3.4-0.7-6.3-1.3-9.7c-1-4.8-4-10.7-12.6-12.1l0,0
			c6.2-1,9.2-4.8,11.2-8.4c2.4-4.8,2-9.7,2.2-14.7"/>
		<path class="st1" d="M130.9,67.2c-0.5,11.4,1.8,22.9,6.2,34c2.8,6,8.3,13.2,18,12.9l0.1,0c-4.9,0.7-9.3,2.8-12.6,5.8
			c-13.2,12-9.4,27.8-10.8,41.9l0,0.1c-0.1-1.4-0.1-2.7-0.1-4c-1.1-6.8-1.1-12.8-2.2-19.6c-1.7-9.8-6.6-21.8-20.6-24.5l0.1,0
			c10.1-2,15-9.7,18.4-17c3.9-9.8,3.3-19.6,3.5-29.9"/>
		<path class="st1" d="M407.7,107.2c-0.3,7.9,1.2,16,4.3,23.7c1.9,4.2,5.8,9.2,12.6,9l0.1,0c-3.4,0.5-6.5,2-8.8,4.1
			c-9.2,8.4-6.5,19.4-7.6,29.2l0,0.1c-0.1-1-0.1-1.9-0.1-2.8c-0.8-4.8-0.8-8.9-1.5-13.7c-1.2-6.9-4.6-15.2-14.4-17.1l0,0
			c7.1-1.4,10.5-6.8,12.8-11.8c2.7-6.9,2.3-13.7,2.5-20.9"/>
		<path class="st1" d="M180.2,399.1c-0.4,10.7,1.7,21.6,5.8,32c2.6,5.6,7.8,12.5,17,12.2l0.1,0c-4.6,0.6-8.7,2.7-11.8,5.5
			c-12.5,11.3-8.8,26.2-10.2,39.4l0,0.1c-0.1-1.3-0.1-2.5-0.1-3.8c-1-6.4-1-12.1-2.1-18.5c-1.6-9.2-6.2-20.5-19.4-23.1l0,0
			c9.5-1.9,14.2-9.1,17.3-16c3.6-9.2,3.1-18.5,3.3-28.1"/>
		<path class="st1" d="M435.4,362.5c-0.9,23.2,3.6,46.6,12.6,69.3c5.6,12.2,16.8,27,36.7,26.4l0.2,0.1c-9.9,1.4-18.9,5.7-25.6,11.8
			c-26.9,24.4-19.1,56.5-22.1,85.3l-0.1,0.2c-0.3-2.9-0.3-5.5-0.3-8.1c-2.2-13.9-2.2-26.1-4.5-40c-3.4-20-13.5-44.4-42-49.9l0.1,0.1
			c20.6-4.1,30.7-19.8,37.4-34.5c7.9-20,6.7-40,7.2-60.8"/>
		<path class="st1" d="M98,114.9c-0.2,3.9,0.8,7.9,2.6,11.7c1.2,2,3.5,4.5,7.7,4.4l0,0c-2.1,0.2-4,1-5.4,2c-5.6,4.1-4,9.5-4.6,14.4
			l0,0c-0.1-0.5-0.1-0.9-0.1-1.4c-0.5-2.3-0.5-4.4-0.9-6.7c-0.7-3.4-2.8-7.5-8.8-8.4h0c4.3-0.7,6.4-3.3,7.8-5.8
			c1.6-3.4,1.4-6.7,1.5-10.2"/>
		<path class="st1" d="M207.7,400.6c-0.2,3.9,0.8,7.9,2.6,11.7c1.2,2,3.5,4.5,7.7,4.4l0,0c-2.1,0.2-4,1-5.4,2
			c-5.6,4.1-4,9.5-4.6,14.4l0,0c-0.1-0.5-0.1-0.9-0.1-1.4c-0.5-2.3-0.5-4.4-0.9-6.7c-0.7-3.4-2.8-7.5-8.8-8.4h0
			c4.3-0.7,6.4-3.3,7.8-5.8c1.6-3.4,1.4-6.7,1.5-10.2"/>
		<path class="st1" d="M328.4,291.3c-0.1,2.1,0.3,4.3,1.1,6.3c0.5,1.1,1.5,2.5,3.2,2.4h0c-0.9,0.1-1.7,0.5-2.2,1.1
			c-2.4,2.2-1.7,5.2-1.9,7.8v0c0-0.3,0-0.5,0-0.7c-0.2-1.3-0.2-2.4-0.4-3.7c-0.3-1.8-1.2-4.1-3.7-4.6l0,0c1.8-0.4,2.7-1.8,3.3-3.1
			C328.4,295,328.3,293.2,328.4,291.3"/>
		<path class="st1" d="M385.4,148.7c-0.1,2.1,0.3,4.3,1.1,6.3c0.5,1.1,1.5,2.5,3.2,2.4h0c-0.9,0.1-1.7,0.5-2.2,1.1
			c-2.4,2.2-1.7,5.2-1.9,7.8v0c0-0.3,0-0.5,0-0.7c-0.2-1.3-0.2-2.4-0.4-3.7c-0.3-1.8-1.2-4.1-3.7-4.6l0,0c1.8-0.4,2.7-1.8,3.3-3.1
			C385.4,152.4,385.3,150.6,385.4,148.7"/>
		<path class="st1" d="M439.8,153.1c-0.1,3.4,0.5,6.9,1.8,10.2c0.8,1.8,2.4,4,5.2,3.9h0c-1.4,0.2-2.7,0.9-3.6,1.8
			c-3.8,3.6-2.7,8.3-3.1,12.6v0c-0.1-0.4-0.1-0.8-0.1-1.2c-0.3-2-0.3-3.8-0.6-5.9c-0.5-2.9-1.9-6.5-5.9-7.4h0
			c2.9-0.6,4.3-2.9,5.3-5.1C439.8,159,439.7,156.1,439.8,153.1"/>
		<path class="st1" d="M370.6,89.2c-0.1,2.1,0.3,4.3,1.1,6.3c0.5,1.1,1.5,2.5,3.2,2.4h0c-0.9,0.1-1.7,0.5-2.2,1.1
			c-2.4,2.2-1.7,5.2-1.9,7.8v0c0-0.3,0-0.5,0-0.7c-0.2-1.3-0.2-2.4-0.4-3.7c-0.3-1.8-1.2-4.1-3.7-4.6l0,0c1.8-0.4,2.7-1.8,3.3-3.1
			C370.6,92.9,370.5,91,370.6,89.2"/>
		<path class="st1" d="M106.7,174.4c-0.1,2.1,0.3,4.3,1.1,6.3c0.5,1.1,1.5,2.5,3.2,2.4h0c-0.9,0.1-1.7,0.5-2.2,1.1
			c-2.4,2.2-1.7,5.2-1.9,7.8v0c0-0.3,0-0.5,0-0.7c-0.2-1.3-0.2-2.4-0.4-3.7c-0.3-1.8-1.2-4.1-3.7-4.6l0,0c1.8-0.4,2.7-1.8,3.3-3.1
			C106.7,178.1,106.6,176.3,106.7,174.4"/>
		<path class="st1" d="M478.6,408.7c-0.2,3.4,0.8,6.9,2.7,10.2c1.2,1.8,3.6,4,7.8,3.9h0c-2.1,0.2-4,0.9-5.5,1.8
			c-5.8,3.6-4.1,8.3-4.7,12.6l0,0c-0.1-0.4-0.1-0.8-0.1-1.2c-0.5-2-0.5-3.8-1-5.9c-0.7-3-2.9-6.5-9-7.4h0c4.4-0.6,6.6-2.9,8-5.1
			c1.7-3,1.4-5.9,1.5-9"/>
		<path class="st1" d="M150.2,439.3c-0.1,1.9,0.4,3.8,1.5,5.7c0.7,1,2,2.2,4.4,2.2h0c-1.2,0.1-2.3,0.5-3.1,1c-3.2,2-2.3,4.7-2.6,7v0
			c0-0.2,0-0.5,0-0.7c-0.3-1.2-0.3-2.2-0.5-3.3c-0.4-1.7-1.6-3.7-5-4.1h0c2.5-0.3,3.7-1.6,4.5-2.8
			C150.3,442.6,150.1,441,150.2,439.3"/>
		<path class="st1" d="M271.7,134.8c-0.1,1.9,0.4,3.9,1.5,5.7c0.7,1,2,2.2,4.4,2.2h0c-1.2,0.1-2.3,0.5-3.1,1c-3.2,2-2.3,4.7-2.6,7v0
			c0-0.2,0-0.4,0-0.7c-0.3-1.1-0.3-2.1-0.5-3.3c-0.4-1.6-1.6-3.7-5-4.1h0c2.5-0.3,3.7-1.6,4.5-2.8
			C271.8,138.1,271.6,136.5,271.7,134.8"/>
		<circle class="st1" cx="256.3" cy="264.6" r="3.8"/>
		<circle class="st1" cx="265.6" cy="273.8" r="1.4"/>
		<circle class="st1" cx="338.5" cy="235.2" r="2.3"/>
		<circle class="st1" cx="333.1" cy="222.5" r="1.4"/>
		<circle class="st1" cx="332.7" cy="287.1" r="0.9"/>
		<circle class="st1" cx="258.9" cy="152.3" r="3.3"/>
		<circle class="st1" cx="278.4" cy="128.7" r="1.4"/>
		<circle class="st1" cx="249.7" cy="148.8" r="1"/>
		<circle class="st1" cx="151" cy="83.9" r="2.9"/>
		<circle class="st1" cx="145.7" cy="92.1" r="1"/>
		<circle class="st1" cx="116.4" cy="156.5" r="1.7"/>
		<circle class="st1" cx="124.4" cy="169.3" r="1"/>
		<circle class="st1" cx="155.7" cy="136.2" r="3.8"/>
		<circle class="st1" cx="420.2" cy="122.8" r="0.9"/>
		<circle class="st1" cx="418.8" cy="155.7" r="0.9"/>
		<circle class="st1" cx="273.2" cy="224.7" r="1"/>
		<circle class="st1" cx="385" cy="111.5" r="2.3"/>
		<circle class="st1" cx="423.5" cy="181.1" r="3.3"/>
		<circle class="st1" cx="399.1" cy="108" r="0.9"/>
		<circle class="st1" cx="340.6" cy="295.6" r="2.3"/>
		<circle class="st1" cx="422.3" cy="319.3" r="0.9"/>
		<circle class="st1" cx="401.3" cy="350.7" r="3.3"/>
		<circle class="st1" cx="414" cy="346.3" r="0.9"/>
		<circle class="st1" cx="470.5" cy="405" r="0.9"/>
		<circle class="st1" cx="403.2" cy="491.8" r="2.3"/>
		<circle class="st1" cx="482.7" cy="471" r="3.3"/>
		<circle class="st1" cx="472.4" cy="476.6" r="0.9"/>
		<circle class="st1" cx="397.3" cy="481.9" r="0.9"/>
		<circle class="st1" cx="466.3" cy="440.6" r="2.3"/>
		<circle class="st1" cx="477.3" cy="446.2" r="0.9"/>
		<circle class="st1" cx="454.8" cy="485.4" r="1.7"/>
		<circle class="st1" cx="448.6" cy="504" r="1.2"/>
		<circle class="st1" cx="458.5" cy="496" r="0.7"/>
		<circle class="st1" cx="160.7" cy="404.5" r="3.3"/>
		<circle class="st1" cx="152.1" cy="424.6" r="1.7"/>
		<circle class="st1" cx="202.6" cy="462.7" r="1.7"/>
		<circle class="st1" cx="218.2" cy="432.6" r="1.7"/>
		<circle class="st1" cx="221" cy="444.7" r="0.7"/>
		<circle class="st1" cx="159.9" cy="436.5" r="0.7"/>
		<circle class="st1" cx="192.6" cy="466.9" r="0.7"/>
		<circle class="st1" cx="104.6" cy="105.2" r="0.7"/>
		<circle class="st1" cx="269.5" cy="173.8" r="0.7"/>
		<circle class="st1" cx="273" cy="162" r="1.4"/>
		<circle class="st1" cx="166.4" cy="182.1" r="3.3"/>
		<circle class="st1" cx="412.2" cy="330.6" r="2.3"/>
		<circle class="st1" cx="158.6" cy="164.8" r="2.3"/>
		<circle class="st1" cx="170.4" cy="169" r="0.7"/>
		<circle class="st1" cx="143" cy="384.4" r="1.7"/>
	</g>
</g>
</svg>
